<?xml version="1.0" encoding="utf-8"?>
<!-- Generator: Adobe Illustrator 21.1.0, SVG Export Plug-In . SVG Version: 6.00 Build 0)  -->
<svg version="1.1" id="Слой_1" xmlns="http://www.w3.org/2000/svg" xmlns:xlink="http://www.w3.org/1999/xlink" x="0px" y="0px"
	 viewBox="0 0 569.3 74.3" style="enable-background:new 0 0 569.3 74.3;" xml:space="preserve">
<style type="text/css">
	.st0{fill:#213A8B;}
	.st1{fill:#DA5155;}
</style>
<path class="st0" d="M112.1,14.3c7.9,0,14.3,3.5,17,6.1l-4.5,5.5c-2.2-2-7.1-4.7-12.5-4.7c-9.9,0-16.1,6.8-16.1,16.1
	s5.9,16.1,16.2,16.1c6,0,11.2-3.2,13.4-5.4l4.3,5.7c-2.7,2.8-9.5,6.6-17.8,6.6c-14.6,0-23.6-9.8-23.6-23.1
	C88.5,24.1,97.8,14.3,112.1,14.3"/>
<path class="st0" d="M157.1,14.3c13.5,0,23.3,9.8,23.3,23.1c0,13.3-9.8,23.1-23.3,23.1c-13.5,0-23.3-9.8-23.3-23.1
	C133.8,24.1,143.6,14.3,157.1,14.3 M157.1,53.5c9.1,0,15.9-6.9,15.9-16.1c0-9.3-6.7-16.1-15.9-16.1c-9.1,0-15.9,6.9-15.9,16.1
	C141.2,46.6,148,53.5,157.1,53.5"/>
<path class="st0" d="M226.8,46.6c0,6.5-4.2,12.8-14.9,12.8h-23.5V15.3h22.1c9,0,14.1,5.5,14.1,11.8c0,3.5-1.6,6.7-5.5,9.3
	C223,37.7,226.8,40.6,226.8,46.6 M195.6,22.2V34l14-0.1c5,0,7.6-2.8,7.6-6.1c0-3-2.2-5.6-6.6-5.6H195.6z M212.3,52.5
	c5.1,0,7.1-2.8,7.1-5.9c0-3.3-2.3-6.1-6.9-6.1h-16.8v12H212.3z"/>
<polygon class="st0" points="255.8,36.7 275.3,59.4 265.7,59.4 249.4,40.1 241,40.1 241,59.4 233.7,59.4 233.7,15.3 241,15.3 
	241,33.5 249.4,33.5 265.3,15.3 275,15.3 "/>
<path class="st0" d="M297.7,14.3c13.5,0,23.3,9.8,23.3,23.1c0,13.3-9.8,23.1-23.3,23.1c-13.5,0-23.3-9.8-23.3-23.1
	C274.4,24.1,284.2,14.3,297.7,14.3 M297.7,53.5c9.1,0,15.9-6.9,15.9-16.1c0-9.3-6.7-16.1-15.9-16.1c-9.1,0-15.9,6.9-15.9,16.1
	C281.8,46.6,288.6,53.5,297.7,53.5"/>
<polygon class="st0" points="369.9,15.3 376.9,15.3 376.9,59.4 369.6,59.4 369.6,26.6 355.1,46 350.7,46 336.2,26.6 336.2,59.4 
	328.9,59.4 328.9,15.3 335.9,15.3 352.9,37.9 "/>
<path class="st0" d="M410.1,33.3c9.7,0,15,5.7,15,13c0,7.3-5.3,13.1-14.5,13.1h-24V15.3H421v6.9h-27.1v11.1H410.1z M410.3,52.5
	c5,0,7.3-2.8,7.3-6.1c0-3.3-2.3-6.1-7.3-6.1h-16.4v12.2H410.3z"/>
<path class="st0" d="M465.4,59.4l-4.8-11h-20.9l-4.8,11H427l19.2-44.1h8l19.2,44.1H465.4z M442.6,41.8h15.2l-7.6-17.6L442.6,41.8z"
	/>
<polygon class="st0" points="511.5,15.3 518.8,15.3 518.8,59.4 511.5,59.4 511.5,40.5 486,40.5 486,59.4 478.7,59.4 478.7,15.3 
	486,15.3 486,33.6 511.5,33.6 "/>
<polygon class="st0" points="550.6,36.7 570.2,59.4 560.5,59.4 544.2,40.1 535.8,40.1 535.8,59.4 528.5,59.4 528.5,15.3 535.8,15.3 
	535.8,33.5 544.2,33.5 560.1,15.3 569.8,15.3 "/>
<path class="st1" d="M1.2,37.4C1.2,57.6,17.6,74,37.9,74c0.5,0,1,0,1.5,0V60.1h-1.5c-12.6,0-22.7-10.2-22.7-22.7
	s10.2-22.7,22.7-22.7h1.5V0.7c-0.5,0-1,0-1.5,0C17.6,0.7,1.2,17.1,1.2,37.4"/>
<path class="st0" d="M45.2,1.4v19.1h-7.3C28.5,20.5,21,28,21,37.4c0,9.3,7.6,16.9,16.9,16.9h7.3v19.1c16.7-3.4,29.3-18.2,29.3-35.9
	C74.5,19.6,61.9,4.8,45.2,1.4"/>
</svg>
